ply
format ascii 1.0
comment tetramesh model
element vertex 32
property float x
property float y
property float z
element face 288
property list uchar int vertex_indices
end_header
1.000000 0.000000 0.000000 
0.000000 1.000000 0.000000 
0.000000 0.000000 1.000000 
0.000000 0.000000 0.000000 
-1.000000 0.000000 0.000000 
0.000000 -1.000000 0.000000 
0.000000 0.000000 -1.000000 
0.000000 0.000000 0.000000 
0.707107 -0.707107 0.000000 
0.707107 0.000000 -0.707107 
0.707107 0.000000 0.000000 
0.707107 0.000000 0.000000 
0.707107 0.000000 0.707107 
0.707107 0.707107 0.000000 
-0.707107 0.707107 0.000000 
0.000000 0.707107 -0.707107 
0.000000 0.707107 0.000000 
0.000000 0.707107 0.000000 
0.000000 0.707107 0.707107 
-0.707107 0.000000 0.707107 
0.000000 -0.707107 0.707107 
0.000000 0.000000 0.707107 
0.000000 0.000000 0.707107 
-0.707107 0.000000 0.000000 
0.000000 -0.707107 0.000000 
0.000000 0.000000 -0.707107 
-0.707107 -0.707107 0.000000 
-0.707107 0.000000 -0.707107 
-0.707107 0.000000 0.000000 
0.000000 -0.707107 -0.707107 
0.000000 -0.707107 0.000000 
0.000000 0.000000 -0.707107 
3 0 13 12
3 0 13 11
3 0 12 11
3 13 12 11
3 1 13 18
3 1 13 17
3 1 18 17
3 13 18 17
3 2 12 18
3 2 12 22
3 2 18 22
3 12 18 22
3 3 11 17
3 3 11 22
3 3 17 22
3 11 17 22
3 0 13 10
3 0 12 10
3 13 12 10
3 1 13 16
3 1 18 16
3 13 18 16
3 2 12 21
3 2 18 21
3 12 18 21
3 7 10 16
3 7 10 21
3 7 16 21
3 10 16 21
3 0 13 9
3 0 9 11
3 13 9 11
3 1 13 15
3 1 15 17
3 13 15 17
3 6 9 15
3 6 9 25
3 6 15 25
3 9 15 25
3 3 11 25
3 3 17 25
3 11 17 25
3 0 8 12
3 0 8 11
3 8 12 11
3 5 8 20
3 5 8 24
3 5 20 24
3 8 20 24
3 2 12 20
3 2 20 22
3 12 20 22
3 3 11 24
3 3 24 22
3 11 24 22
3 0 9 10
3 13 9 10
3 1 15 16
3 13 15 16
3 6 9 31
3 6 15 31
3 9 15 31
3 7 10 31
3 7 16 31
3 10 16 31
3 0 8 10
3 8 12 10
3 5 8 30
3 5 20 30
3 8 20 30
3 2 20 21
3 12 20 21
3 7 10 30
3 7 30 21
3 10 30 21
3 0 8 9
3 8 9 11
3 5 8 29
3 5 29 24
3 8 29 24
3 6 9 29
3 6 29 25
3 9 29 25
3 3 24 25
3 11 24 25
3 8 9 10
3 5 29 30
3 8 29 30
3 6 29 31
3 9 29 31
3 7 30 31
3 10 30 31
3 4 14 19
3 4 14 23
3 4 19 23
3 14 19 23
3 1 14 18
3 1 14 17
3 14 18 17
3 2 19 18
3 2 19 22
3 19 18 22
3 3 23 17
3 3 23 22
3 23 17 22
3 4 14 28
3 4 19 28
3 14 19 28
3 1 14 16
3 14 18 16
3 2 19 21
3 19 18 21
3 7 28 16
3 7 28 21
3 28 16 21
3 4 14 27
3 4 27 23
3 14 27 23
3 1 14 15
3 14 15 17
3 6 27 15
3 6 27 25
3 27 15 25
3 3 23 25
3 23 17 25
3 4 26 19
3 4 26 23
3 26 19 23
3 5 26 20
3 5 26 24
3 26 20 24
3 2 19 20
3 19 20 22
3 3 23 24
3 23 24 22
3 4 27 28
3 14 27 28
3 14 15 16
3 6 27 31
3 27 15 31
3 7 28 31
3 28 16 31
3 4 26 28
3 26 19 28
3 5 26 30
3 26 20 30
3 19 20 21
3 7 28 30
3 28 30 21
3 4 26 27
3 26 27 23
3 5 26 29
3 26 29 24
3 6 27 29
3 27 29 25
3 23 24 25
3 26 27 28
3 26 29 30
3 27 29 31
3 28 30 31
3 13 12 17
3 13 11 17
3 12 11 17
3 13 12 18
3 12 17 18
3 22 12 11
3 22 11 18
3 12 11 18
3 22 17 18
3 11 17 18
3 13 12 16
3 13 10 16
3 12 10 16
3 12 16 18
3 21 12 10
3 21 10 18
3 12 10 18
3 21 16 18
3 10 16 18
3 13 9 17
3 9 11 17
3 13 9 15
3 9 17 15
3 25 9 11
3 25 11 15
3 9 11 15
3 25 17 15
3 11 17 15
3 8 12 24
3 8 11 24
3 12 11 24
3 8 12 20
3 12 24 20
3 22 11 20
3 12 11 20
3 22 24 20
3 11 24 20
3 13 9 16
3 9 10 16
3 9 16 15
3 31 9 10
3 31 10 15
3 9 10 15
3 31 16 15
3 10 16 15
3 8 12 30
3 8 10 30
3 12 10 30
3 12 30 20
3 21 10 20
3 12 10 20
3 21 30 20
3 10 30 20
3 8 9 24
3 9 11 24
3 8 9 29
3 9 24 29
3 25 11 29
3 9 11 29
3 25 24 29
3 11 24 29
3 8 9 30
3 9 10 30
3 9 30 29
3 31 10 29
3 9 10 29
3 31 30 29
3 10 30 29
3 14 19 17
3 14 23 17
3 19 23 17
3 14 19 18
3 19 17 18
3 22 19 23
3 22 23 18
3 19 23 18
3 23 17 18
3 14 19 16
3 14 28 16
3 19 28 16
3 19 16 18
3 21 19 28
3 21 28 18
3 19 28 18
3 28 16 18
3 14 27 17
3 27 23 17
3 14 27 15
3 27 17 15
3 25 27 23
3 25 23 15
3 27 23 15
3 23 17 15
3 26 19 24
3 26 23 24
3 19 23 24
3 26 19 20
3 19 24 20
3 22 23 20
3 19 23 20
3 23 24 20
3 14 27 16
3 27 28 16
3 27 16 15
3 31 27 28
3 31 28 15
3 27 28 15
3 28 16 15
3 26 19 30
3 26 28 30
3 19 28 30
3 19 30 20
3 21 28 20
3 19 28 20
3 28 30 20
3 26 27 24
3 27 23 24
3 26 27 29
3 27 24 29
3 25 23 29
3 27 23 29
3 23 24 29
3 26 27 30
3 27 28 30
3 27 30 29
3 31 28 29
3 27 28 29
3 28 30 29
